# xmcd
#
# Track frame offsets: 
#        150
#        21450
#        42750
#        61696
#        80642
#        96538
#        112313
#        123164
#        134015
#        144891
#        155767
#        172366
#        189010
#        210176
#        231321
#        252031
#        283914
#
# Disc length: 3822 seconds
#
# Revision: 0
# Processed by: cddbd v1.5.2PL0 Copyright (c) Steve Scherf et al.
# Submitted via: ExactAudioCopyFreeDBPlugin 1.0
#
DISCID=fa0eec11
DTITLE=Hal Leonard - Bass Play-Along - Vol. 51: Stevie Ray Vaughan
DYEAR=2015
DGENRE=Blues
TTITLE0=Couldn't Stand the Weather (demo)
TTITLE1=Couldn't Stand the Weather (play-along)
TTITLE2=Crossfire (demo)
TTITLE3=Crossfire (play-along)
TTITLE4=Empty Arms (demo)
TTITLE5=Empty Arms (play-along)
TTITLE6=The House Is Rockin' (demo)
TTITLE7=The House Is Rockin' (play-along)
TTITLE8=Love Struck Baby (demo)
TTITLE9=Love Struck Baby (play-along)
TTITLE10=Pride and Joy (demo)
TTITLE11=Pride and Joy (play-along)
TTITLE12=The Sky Is Crying (demo)
TTITLE13=The Sky Is Crying (play-along)
TTITLE14=Tightrope (demo)
TTITLE15=Tightrope (play-along)
TTITLE16=Data
EXTD=
EXTT0=
EXTT1=
EXTT2=
EXTT3=
EXTT4=
EXTT5=
EXTT6=
EXTT7=
EXTT8=
EXTT9=
EXTT10=
EXTT11=
EXTT12=
EXTT13=
EXTT14=
EXTT15=
EXTT16=
PLAYORDER=
